<svg xmlns="http://www.w3.org/2000/svg" viewBox="0 0 162 61.6">
  <g fill="#6D1F37">
    <path d="M82.3,0.6l12.2,0c-4.2,1.9-7,6-6.6,10.5c0.6,6.7,6.6,9.2,6.6,17.1c0,5.2-3.4,9.8-7.1,11.8L76.3,37c3.8-1.8,6.4-5.5,6.2-9.6c-0.3-6.3-6.2-9.2-6.2-16.4C76.3,6.2,79,2.3,82.3,0.6"/>
    <polygon points="108.4,33.6 108.4,9 101,9 101,0.6 125.8,0.6 125.8,9 118.2,9 118.2,33.6"/>
    <path d="M0,17.2c0,9.5,7.7,17.2,17.2,17.2c4.7,0,9-1.9,12.1-5l-6.7-6.7c-1.4,1.4-3.3,2.2-5.5,2.2c-4.3,0-7.8-3.5-7.8-7.8c0-4.3,3.5-7.8,7.8-7.8c2.1,0,4,0.9,5.5,2.2L29.3,5c-3.1-3.1-7.4-5-12.1-5C7.7,0,0,7.7,0,17.2"/>
    <path d="M51.1,24.9c-4.3,0-7.8-3.5-7.8-7.8c0-4.3,3.5-7.8,7.8-7.8c4.3,0,7.8,3.5,7.8,7.8C58.9,21.5,55.4,24.9,51.1,24.9 M51.4,0c-9.5,0-17.2,7.7-17.2,17.2c0,9.5,7.7,17.2,17.2,17.2c9.5,0,17.2-7.7,17.2-17.2C68.6,7.7,60.9,0,51.4,0"/>
    <path d="M142.4,20.7l3-12.6h0.5l3,12.6H142.4z M151.6,0.6h-11.9l-10.4,33h10.1l1.3-5.7h10l1.3,5.7H162L151.6,0.6z"/>
    <polygon points="71,48.2 81.1,48.2 81.1,50.9 74.1,50.9 74.1,53.5 79.9,53.5 79.9,56.1 74.1,56.1 74.1,61.4 71,61.4"/>
    <polygon points="85.3,48.2 95.3,48.2 95.3,50.9 88.3,50.9 88.3,53.5 94.1,53.5 94.1,56.1 88.3,56.1 88.3,61.4 85.3,61.4"/>
    <path d="M48.1,57c-0.7,1.1-1.9,1.8-3.3,1.8c-2.2,0-3.9-1.8-3.9-3.9c0-2.2,1.8-3.9,3.9-3.9c1.2,0,2.3,0.5,3,1.4l2-2c-1.2-1.4-3-2.3-5.1-2.3c-3.8,0-6.8,3-6.8,6.8c0,3.8,3,6.8,6.8,6.8c2.2,0,4.1-1.1,5.4-2.6L48.1,57z"/>
    <polygon points="102.6,58.8 102.6,56.1 108.4,56.1 108.4,53.5 102.6,53.5 102.6,50.9 109.4,50.9 109.4,48.2 99.5,48.2 99.5,61.4 109.7,61.4 109.7,58.8"/>
    <polygon points="124.1,50.9 124.1,48.2 114.2,48.2 114.2,61.4 124.4,61.4 124.4,58.8 117.3,58.8 117.3,56.1 123.1,56.1 123.1,53.5 117.3,53.5 117.3,50.9"/>
    <path d="M60,58.7c-2.2,0-3.9-1.8-3.9-3.9c0-2.2,1.8-3.9,3.9-3.9s3.9,1.8,3.9,3.9C63.9,57,62.1,58.7,60,58.7 M60,48c-3.8,0-6.8,3-6.8,6.8c0,3.8,3,6.8,6.8,6.8c3.8,0,6.8-3,6.8-6.8C66.8,51.1,63.7,48,60,48"/>
  </g>
</svg>
