<svg width="48" height="20" viewBox="0 0 48 20" fill="none" xmlns="http://www.w3.org/2000/svg">
  <path d="M41.4999 17.3271C40.2065 18.6205 38.6276 19.2672 36.7632 19.2672C34.8987 19.2672 33.3198 18.6289 32.0265 17.3523C30.7331 16.059 30.0864 14.4801 30.0864 12.6156C30.0864 10.7512 30.7331 9.1807 32.0265 7.90414C33.3198 6.61079 34.8987 5.96411 36.7632 5.96411C38.6276 5.96411 40.2065 6.61079 41.4999 7.90414C42.7932 9.1807 43.4399 10.7512 43.4399 12.6156C43.4399 14.4801 42.7932 16.0506 41.4999 17.3271ZM34.6971 14.7572C35.2514 15.3115 35.9401 15.5887 36.7632 15.5887C37.5862 15.5887 38.2749 15.3115 38.8292 14.7572C39.3835 14.2029 39.6606 13.4891 39.6606 12.6156C39.6606 11.7422 39.3835 11.0283 38.8292 10.4741C38.2749 9.91976 37.5862 9.64261 36.7632 9.64261C35.9401 9.64261 35.2514 9.91976 34.6971 10.4741C34.1429 11.0283 33.8657 11.7422 33.8657 12.6156C33.8657 13.4891 34.1429 14.2029 34.6971 14.7572Z" fill="#141312"></path>
  <path d="M5.12801 9.99534C5.12801 10.2473 5.33797 10.4573 5.75789 10.6252C6.19461 10.7764 6.71531 10.936 7.31999 11.1039C7.92468 11.2551 8.52936 11.4567 9.13405 11.7086C9.73873 11.9606 10.251 12.3805 10.671 12.9684C11.1077 13.5395 11.326 14.2617 11.326 15.1352C11.326 16.4957 10.8221 17.5287 9.81432 18.2342C8.80651 18.9228 7.56354 19.2672 6.08543 19.2672C3.43153 19.2672 1.62587 18.2678 0.668457 16.2689L3.94383 14.4045C4.27977 15.3955 4.99363 15.891 6.08543 15.891C6.99245 15.891 7.44597 15.6307 7.44597 15.11C7.44597 14.858 7.22761 14.6481 6.79089 14.4801C6.37097 14.3121 5.85867 14.1526 5.25398 14.0014C4.6493 13.8334 4.04461 13.6235 3.43993 13.3715C2.83524 13.1028 2.31454 12.6912 1.87783 12.1369C1.45791 11.5826 1.24795 10.9024 1.24795 10.0961C1.24795 8.78597 1.71826 7.76977 2.65888 7.0475C3.6163 6.32524 4.79207 5.96411 6.18621 5.96411C7.22761 5.96411 8.17663 6.19927 9.03327 6.66958C9.8899 7.12309 10.5786 7.78656 11.0993 8.66L7.87429 10.3985C7.47116 9.65941 6.90847 9.28988 6.18621 9.28988C5.48074 9.28988 5.12801 9.52503 5.12801 9.99534Z" fill="#141312"></path>
  <path d="M25.4319 18.9145V0.521973H29.2112V18.9145H25.4319Z" fill="#141312"></path>
  <path d="M47.1392 18.5616C46.6689 19.0319 46.1062 19.2671 45.4512 19.2671C44.7961 19.2671 44.2334 19.0319 43.7631 18.5616C43.2928 18.0913 43.0576 17.5286 43.0576 16.8735C43.0576 16.2184 43.2928 15.6558 43.7631 15.1854C44.2334 14.7151 44.7961 14.48 45.4512 14.48C46.1062 14.48 46.6689 14.7151 47.1392 15.1854C47.6096 15.6558 47.8447 16.2184 47.8447 16.8735C47.8447 17.5286 47.6096 18.0913 47.1392 18.5616Z" fill="#141312"></path>
  <path fill-rule="evenodd" clip-rule="evenodd" d="M18.2664 19.2779C21.9747 19.2779 24.9808 16.2718 24.9808 12.5635C24.9808 8.85526 21.9747 5.84912 18.2664 5.84912C14.5581 5.84912 11.552 8.85526 11.552 12.5635C11.552 16.2718 14.5581 19.2779 18.2664 19.2779ZM21.0336 12.4432L18.8897 11.864L20.6088 8.69975C20.7343 8.48588 20.4765 8.27812 20.2974 8.4216L15.4346 12.3058C15.278 12.4226 15.3378 12.6411 15.5008 12.6848L17.6478 13.2601L15.9258 16.4276C15.8001 16.6415 16.0579 16.8493 16.2371 16.7059L21.1113 12.8124L21.1111 12.8121C21.2445 12.7052 21.202 12.4886 21.0336 12.4432Z" fill="#141312"></path>
</svg>
